<svg xmlns="http://www.w3.org/2000/svg" viewBox="0 0 512 512" style="height: 512px; width: 512px;"><defs><linearGradient x1="0" x2="0" y1="0" y2="1" id="lorc-deadly-strike-gradient-2"><stop offset="0%" stop-color="#d0021b" stop-opacity="1"></stop><stop offset="100%" stop-color="#f5a623" stop-opacity="1"></stop></linearGradient></defs><rect fill="#ffffff" fill-opacity="1" height="512" width="512" rx="32" ry="32"></rect><g class="" transform="translate(0,0)" style=""><g><path d="M196.38 16.29L208.398 230.967L139.016 17.217L119.366 17.217L189.886 234.467C172.726 216.247 155.452 189.727 137.643 154.221C156.507 216.279 173.216 293.288 178.195 346.261L19.38 62.393L19.38 100.67L164.27 359.65C130.777 338.334 96.41 303.275 66.352 266.78C93.064 319.51 121.612 371.627 139.428 427.32L19.378 289.453L19.378 317.913L127.375 441.939C99 434.69 70.625 422.05 42.25 408.165C80.28 434.772 104.286 459.062 126.484 493.985L230.84 493.985L224.055 402.903L197.77 402.903C197.77 358.058 200.64 294.175 238.537 287.043C231.544 278.61 227.004 266.773 227.004 253.52C227.004 229.59 241.232 209.762 259.454 207.393L259.459 207.393C259.762 207.355 260.069 207.337 260.382 207.33C261.316 207.31 262.277 207.393 263.212 207.393C283.169 207.393 299.417 227.995 299.417 253.521C299.417 266.449 295.113 278.116 288.421 286.511C329.821 292.931 328.917 357.935 328.917 402.905L303.977 402.905L297.974 493.987L388.934 493.987C408.352 463.217 449.798 437.26 485.458 418.753C446.873 429.423 409.531 436.355 375.798 439.773L493.768 352.803L493.768 329.585L367.988 422.313C392.388 372.95 423.89 334.238 458.152 299.665C417.592 326.988 384.902 337.365 351.125 343.45L493.77 158.7L493.77 128.12L339.297 328.19C340.487 276.95 356.243 213.763 378.453 157.143C361.07 182.197 344.577 203.216 328.74 219.885L385.146 17.217L365.748 17.217L312.336 209.123L316.168 16.289L196.378 16.289Z" class="selected" fill="url(#lorc-deadly-strike-gradient-2)"></path></g></g></svg>